<svg width="16" height="16" viewBox="0 0 16 16" fill="none" xmlns="http://www.w3.org/2000/svg">
<path d="M3 3C1.8954 3 1 3.89543 1 5V11C1 12.1046 1.89543 13 3 13H13C14.1046 13 15 12.1046 15 11V5C15 3.8954 14.1046 3 13 3H3ZM3 5H13V11H3V5ZM4 6V10H5V6H4ZM6 6V10H7V6H6ZM8 6V10H9V6H8Z" fill="#A5EFAC"/>
<line x1="5" y1="16" x2="5" y2="13" stroke="#A5EFAC" stroke-width="2"/>
<line x1="5" y1="16" x2="5" y2="13" stroke="#A5EFAC" stroke-width="2"/>
<line x1="5" y1="16" x2="5" y2="13" stroke="#A5EFAC" stroke-width="2"/>
<line x1="5" y1="16" x2="5" y2="13" stroke="#A5EFAC" stroke-width="2"/>
<line x1="11" y1="16" x2="11" y2="13" stroke="#A5EFAC" stroke-width="2"/>
<line x1="11" y1="16" x2="11" y2="13" stroke="#A5EFAC" stroke-width="2"/>
<line x1="11" y1="16" x2="11" y2="13" stroke="#A5EFAC" stroke-width="2"/>
<line x1="11" y1="16" x2="11" y2="13" stroke="#A5EFAC" stroke-width="2"/>
</svg>
